<svg width="16" height="16" viewBox="0 0 16 16" fill="none" xmlns="http://www.w3.org/2000/svg">
<path fill-rule="evenodd" clip-rule="evenodd" d="M12 8.00014C12 8.13275 11.9473 8.25993 11.8535 8.3537C11.7598 8.44747 11.6326 8.50014 11.5 8.50014H5.70699L7.85399 10.6461C7.90048 10.6926 7.93736 10.7478 7.96252 10.8086C7.98768 10.8693 8.00062 10.9344 8.00062 11.0001C8.00062 11.0659 7.98768 11.131 7.96252 11.1917C7.93736 11.2525 7.90048 11.3077 7.85399 11.3541C7.80751 11.4006 7.75232 11.4375 7.69158 11.4627C7.63084 11.4878 7.56574 11.5008 7.49999 11.5008C7.43425 11.5008 7.36915 11.4878 7.30841 11.4627C7.24767 11.4375 7.19248 11.4006 7.14599 11.3541L4.14599 8.35414C4.09943 8.3077 4.06249 8.25252 4.03728 8.19178C4.01207 8.13103 3.9991 8.06591 3.9991 8.00014C3.9991 7.93438 4.01207 7.86926 4.03728 7.80851C4.06249 7.74776 4.09943 7.69259 4.14599 7.64614L7.14599 4.64614C7.23988 4.55226 7.36722 4.49951 7.49999 4.49951C7.63277 4.49951 7.76011 4.55226 7.85399 4.64614C7.94788 4.74003 8.00062 4.86737 8.00062 5.00014C8.00062 5.13292 7.94788 5.26026 7.85399 5.35414L5.70699 7.50014H11.5C11.6326 7.50014 11.7598 7.55282 11.8535 7.64659C11.9473 7.74036 12 7.86754 12 8.00014Z" fill="white"/>
</svg>
