<svg width="16" height="17" viewBox="0 0 16 17" fill="none" xmlns="http://www.w3.org/2000/svg">
<path d="M7.8035 3.13114C4.64748 3.28714 2.13777 5.83004 2.13777 8.94387C2.13777 9.99443 2.42346 10.98 2.9232 11.8308L2.31797 12.9631C1.48818 11.8296 1 10.4422 1 8.94387C1 5.11727 4.18375 2.01486 8.11111 2.01486C8.16725 2.01486 8.22324 2.01551 8.27901 2.01673L9.30621 0H11.5006V2.8511C13.7173 4.02447 15.2222 6.31298 15.2222 8.94379C15.2222 12.7705 12.0385 15.8728 8.11111 15.8728C6.91236 15.8728 5.78286 15.5838 4.79204 15.0733L5.29245 14.0767C6.13207 14.5153 7.09173 14.7641 8.11111 14.7641C11.4101 14.7641 14.0845 12.1582 14.0845 8.94379C14.0845 6.93483 13.0397 5.16352 11.4508 4.11749V9.62597L9.44555 7.79864V3.6237L6.96902 9.28991H9.44555V8.38034L11.7672 10.4829L9.36817 12.2573V11.3179H6.10225L3.951 16L1.28882 15.9498L7.8035 3.13114Z" fill="white"/>
<path d="M9.36572 12.9022L11.4469 11.1846V12.9022H9.36572Z" fill="white"/>
</svg>
