<svg width="16" height="17" viewBox="0 0 16 17" fill="none" xmlns="http://www.w3.org/2000/svg">
<path d="M2.14602 3.35401C2.09953 3.30752 2.06266 3.25233 2.0375 3.19159C2.01234 3.13085 1.99939 3.06575 1.99939 3.00001C1.99939 2.93426 2.01234 2.86916 2.0375 2.80842C2.06266 2.74768 2.09953 2.69249 2.14602 2.64601C2.19251 2.59952 2.2477 2.56264 2.30844 2.53748C2.36918 2.51232 2.43428 2.49937 2.50002 2.49937C2.56577 2.49937 2.63087 2.51232 2.6916 2.53748C2.75234 2.56264 2.80753 2.59952 2.85402 2.64601L8.00002 7.79301L13.146 2.64601C13.1925 2.59952 13.2477 2.56264 13.3084 2.53748C13.3692 2.51232 13.4343 2.49937 13.5 2.49937C13.5658 2.49937 13.6309 2.51232 13.6916 2.53748C13.7523 2.56264 13.8075 2.59952 13.854 2.64601C13.9005 2.69249 13.9374 2.74768 13.9625 2.80842C13.9877 2.86916 14.0007 2.93426 14.0007 3.00001C14.0007 3.06575 13.9877 3.13085 13.9625 3.19159C13.9374 3.25233 13.9005 3.30752 13.854 3.35401L8.70702 8.50001L13.854 13.646C13.9005 13.6925 13.9374 13.7477 13.9625 13.8084C13.9877 13.8692 14.0007 13.9343 14.0007 14C14.0007 14.0657 13.9877 14.1308 13.9625 14.1916C13.9374 14.2523 13.9005 14.3075 13.854 14.354C13.8075 14.4005 13.7523 14.4374 13.6916 14.4625C13.6309 14.4877 13.5658 14.5006 13.5 14.5006C13.4343 14.5006 13.3692 14.4877 13.3084 14.4625C13.2477 14.4374 13.1925 14.4005 13.146 14.354L8.00002 9.20701L2.85402 14.354C2.80753 14.4005 2.75234 14.4374 2.6916 14.4625C2.63087 14.4877 2.56577 14.5006 2.50002 14.5006C2.43428 14.5006 2.36918 14.4877 2.30844 14.4625C2.2477 14.4374 2.19251 14.4005 2.14602 14.354C2.09953 14.3075 2.06266 14.2523 2.0375 14.1916C2.01234 14.1308 1.99939 14.0657 1.99939 14C1.99939 13.9343 2.01234 13.8692 2.0375 13.8084C2.06266 13.7477 2.09953 13.6925 2.14602 13.646L7.29302 8.50001L2.14602 3.35401Z" fill="#5C5C5C"/>
</svg>
