<svg width="16" height="17" viewBox="0 0 16 17" fill="none" xmlns="http://www.w3.org/2000/svg">
<rect y="0.5" width="16" height="16" rx="8" fill="#96DE6D"/>
<path d="M13.8539 4.14599C13.9005 4.19244 13.9374 4.24761 13.9626 4.30836C13.9878 4.36911 14.0008 4.43423 14.0008 4.49999C14.0008 4.56576 13.9878 4.63088 13.9626 4.69163C13.9374 4.75237 13.9005 4.80755 13.8539 4.85399L6.8539 11.854C6.80745 11.9006 6.75228 11.9375 6.69153 11.9627C6.63079 11.9879 6.56567 12.0009 6.4999 12.0009C6.43413 12.0009 6.36901 11.9879 6.30827 11.9627C6.24752 11.9375 6.19234 11.9006 6.1459 11.854L2.6459 8.35399C2.55201 8.26011 2.49927 8.13277 2.49927 7.99999C2.49927 7.86722 2.55201 7.73988 2.6459 7.64599C2.73979 7.55211 2.86712 7.49936 2.9999 7.49936C3.13267 7.49936 3.26001 7.55211 3.3539 7.64599L6.4999 10.793L13.1459 4.14599C13.1923 4.09943 13.2475 4.06249 13.3083 4.03728C13.369 4.01207 13.4341 3.9991 13.4999 3.9991C13.5657 3.9991 13.6308 4.01207 13.6915 4.03728C13.7523 4.06249 13.8075 4.09943 13.8539 4.14599Z" fill="white"/>
</svg>
