<svg width="16" height="17" viewBox="0 0 16 17" fill="none" xmlns="http://www.w3.org/2000/svg">
<rect y="0.5" width="16" height="16" rx="8" fill="#E3C459"/>
<path d="M7.005 3.6C6.99104 3.46095 7.00638 3.32052 7.05003 3.18777C7.09368 3.05502 7.16467 2.93289 7.25842 2.82925C7.35217 2.72562 7.4666 2.64279 7.59433 2.5861C7.72206 2.52941 7.86026 2.50012 8 2.50012C8.13974 2.50012 8.27794 2.52941 8.40567 2.5861C8.5334 2.64279 8.64783 2.72562 8.74158 2.82925C8.83533 2.93289 8.90632 3.05502 8.94997 3.18777C8.99362 3.32052 9.00896 3.46095 8.995 3.6L8.607 9.95C8.59201 10.1006 8.52159 10.2402 8.40942 10.3418C8.29724 10.4433 8.15132 10.4996 8 10.4996C7.84868 10.4996 7.70276 10.4433 7.59058 10.3418C7.47841 10.2402 7.40799 10.1006 7.393 9.95L7.005 3.6ZM7 12.5C7 12.2348 7.10536 11.9804 7.29289 11.7929C7.48043 11.6054 7.73478 11.5 8 11.5C8.26522 11.5 8.51957 11.6054 8.70711 11.7929C8.89464 11.9804 9 12.2348 9 12.5C9 12.7652 8.89464 13.0196 8.70711 13.2071C8.51957 13.3946 8.26522 13.5 8 13.5C7.73478 13.5 7.48043 13.3946 7.29289 13.2071C7.10536 13.0196 7 12.7652 7 12.5Z" fill="white"/>
</svg>
