<svg width="16" height="17" viewBox="0 0 16 17" fill="none" xmlns="http://www.w3.org/2000/svg">
<rect y="0.5" width="16" height="16" rx="8" fill="#DE6D72"/>
<path d="M4.64592 5.14601C4.69236 5.09945 4.74754 5.0625 4.80828 5.0373C4.86903 5.01209 4.93415 4.99911 4.99992 4.99911C5.06568 4.99911 5.13081 5.01209 5.19155 5.0373C5.2523 5.0625 5.30747 5.09945 5.35392 5.14601L7.99992 7.79301L10.6459 5.14601C10.6924 5.09952 10.7476 5.06264 10.8083 5.03749C10.8691 5.01233 10.9342 4.99938 10.9999 4.99938C11.0657 4.99938 11.1308 5.01233 11.1915 5.03749C11.2522 5.06264 11.3074 5.09952 11.3539 5.14601C11.4004 5.1925 11.4373 5.24769 11.4624 5.30842C11.4876 5.36916 11.5005 5.43426 11.5005 5.50001C11.5005 5.56575 11.4876 5.63085 11.4624 5.69159C11.4373 5.75233 11.4004 5.80752 11.3539 5.85401L8.70692 8.50001L11.3539 11.146C11.4004 11.1925 11.4373 11.2477 11.4624 11.3084C11.4876 11.3692 11.5005 11.4343 11.5005 11.5C11.5005 11.5658 11.4876 11.6309 11.4624 11.6916C11.4373 11.7523 11.4004 11.8075 11.3539 11.854C11.3074 11.9005 11.2522 11.9374 11.1915 11.9625C11.1308 11.9877 11.0657 12.0006 10.9999 12.0006C10.9342 12.0006 10.8691 11.9877 10.8083 11.9625C10.7476 11.9374 10.6924 11.9005 10.6459 11.854L7.99992 9.20701L5.35392 11.854C5.30743 11.9005 5.25224 11.9374 5.1915 11.9625C5.13076 11.9877 5.06566 12.0006 4.99992 12.0006C4.93417 12.0006 4.86907 11.9877 4.80833 11.9625C4.74759 11.9374 4.6924 11.9005 4.64592 11.854C4.59943 11.8075 4.56255 11.7523 4.53739 11.6916C4.51223 11.6309 4.49929 11.5658 4.49929 11.5C4.49929 11.4343 4.51223 11.3692 4.53739 11.3084C4.56255 11.2477 4.59943 11.1925 4.64592 11.146L7.29292 8.50001L4.64592 5.85401C4.59935 5.80756 4.56241 5.75239 4.5372 5.69164C4.512 5.6309 4.49902 5.56578 4.49902 5.50001C4.49902 5.43424 4.512 5.36912 4.5372 5.30837C4.56241 5.24763 4.59935 5.19245 4.64592 5.14601Z" fill="white"/>
</svg>
