<svg width="154" height="64" viewBox="0 0 154 64" fill="none" xmlns="http://www.w3.org/2000/svg">
<path d="M154 59.3879C154 61.5971 152.209 63.3879 150 63.3879H4C1.79086 63.3879 0 61.5971 0 59.3879V3.99992C0 1.79079 1.79086 -7.24792e-05 4 -7.24792e-05H150C152.209 -7.24792e-05 154 1.79079 154 3.99993V59.3879Z" fill="#F0141E"/>
<path d="M132.986 8.99915H141.604V46.1477H148.911V55.52H132.986V8.99915Z" fill="white"/>
<path d="M73.5936 31.1519C79.7764 30.8111 79.2144 23.8245 79.2144 23.8245C78.2776 17.0082 73.5936 17.349 73.5936 17.349V31.1519ZM53.7337 41.8875L51.1107 27.7438L48.8624 41.8875H53.7337ZM6.33228 55.3496V8.99915H17.9484L22.0703 28.4254L26.7542 8.99915H37.9957V50.7486L45.3026 8.99915H56.7314L63.851 50.7486V9.16956H79.027C79.027 9.16956 84.273 10.0216 86.896 16.6674L85.7719 8.99915H94.9524L99.2616 33.0264L103.758 9.16956H129.614V17.8603H121.932V27.403H129.239V37.1162H122.119V45.9773H129.614V55.3496H112.939V10.7032L104.32 55.3496H94.0156L88.5822 25.6989C88.5822 25.6989 87.6454 33.8784 82.5868 37.6274L89.1443 55.3496H80.1511L73.781 39.8427V55.3496H55.6073L54.6705 50.9191H47.7383L46.2394 55.3496H29.0025V38.309L24.506 55.3496H19.822L15.7002 38.4794V55.1792L6.33228 55.3496Z" fill="white"/>
</svg>
