<svg width="16" height="16" viewBox="0 0 16 16" fill="none" xmlns="http://www.w3.org/2000/svg">
<path fill-rule="evenodd" clip-rule="evenodd" d="M4.64608 14.354C4.59952 14.3076 4.56258 14.2524 4.53737 14.1917C4.51216 14.1309 4.49919 14.0658 4.49919 14C4.49919 13.9343 4.51216 13.8691 4.53737 13.8084C4.56258 13.7476 4.59952 13.6925 4.64608 13.646L10.2931 8.00002L4.64608 2.35402C4.5522 2.26014 4.49945 2.1328 4.49945 2.00002C4.49945 1.86725 4.5522 1.73991 4.64608 1.64602C4.73997 1.55214 4.86731 1.49939 5.00008 1.49939C5.13286 1.49939 5.2602 1.55214 5.35408 1.64602L11.3541 7.64602C11.4006 7.69247 11.4376 7.74764 11.4628 7.80839C11.488 7.86913 11.501 7.93425 11.501 8.00002C11.501 8.06579 11.488 8.13091 11.4628 8.19166C11.4376 8.2524 11.4006 8.30758 11.3541 8.35402L5.35408 14.354C5.30764 14.4006 5.25246 14.4375 5.19172 14.4627C5.13097 14.4879 5.06585 14.5009 5.00008 14.5009C4.93432 14.5009 4.86919 14.4879 4.80845 14.4627C4.7477 14.4375 4.69253 14.4006 4.64608 14.354Z" fill="white"/>
</svg>
