<svg width="16" height="17" viewBox="0 0 16 17" fill="none" xmlns="http://www.w3.org/2000/svg">
<path d="M15.502 2.43991C15.5955 2.53363 15.6479 2.66057 15.6479 2.7929C15.6479 2.92524 15.5955 3.05218 15.502 3.1459L14.459 4.1899L12.459 2.18991L13.502 1.1459C13.5958 1.05217 13.7229 0.999512 13.8555 0.999512C13.9881 0.999512 14.1153 1.05217 14.209 1.1459L15.502 2.43891V2.43991ZM13.752 4.8959L11.752 2.8959L4.93902 9.7099C4.88398 9.76493 4.84255 9.83204 4.81802 9.9059L4.01302 12.3199C3.99842 12.3639 3.99635 12.4111 4.00703 12.4562C4.01772 12.5014 4.04074 12.5426 4.07353 12.5754C4.10632 12.6082 4.14757 12.6312 4.19269 12.6419C4.23781 12.6526 4.28501 12.6505 4.32902 12.6359L6.74302 11.8309C6.81679 11.8067 6.88389 11.7656 6.93902 11.7109L13.752 4.8959Z" fill="white"/>
<path fill-rule="evenodd" clip-rule="evenodd" d="M1 14C1 14.3978 1.15804 14.7794 1.43934 15.0607C1.72064 15.342 2.10218 15.5 2.5 15.5H13.5C13.8978 15.5 14.2794 15.342 14.5607 15.0607C14.842 14.7794 15 14.3978 15 14V8C15 7.86739 14.9473 7.74021 14.8536 7.64645C14.7598 7.55268 14.6326 7.5 14.5 7.5C14.3674 7.5 14.2402 7.55268 14.1464 7.64645C14.0527 7.74021 14 7.86739 14 8V14C14 14.1326 13.9473 14.2598 13.8536 14.3536C13.7598 14.4473 13.6326 14.5 13.5 14.5H2.5C2.36739 14.5 2.24021 14.4473 2.14645 14.3536C2.05268 14.2598 2 14.1326 2 14V3C2 2.86739 2.05268 2.74021 2.14645 2.64645C2.24021 2.55268 2.36739 2.5 2.5 2.5H9C9.13261 2.5 9.25979 2.44732 9.35355 2.35355C9.44732 2.25979 9.5 2.13261 9.5 2C9.5 1.86739 9.44732 1.74021 9.35355 1.64645C9.25979 1.55268 9.13261 1.5 9 1.5H2.5C2.10218 1.5 1.72064 1.65804 1.43934 1.93934C1.15804 2.22064 1 2.60218 1 3V14Z" fill="white"/>
</svg>
