<svg width="16" height="17" viewBox="0 0 16 17" fill="none" xmlns="http://www.w3.org/2000/svg">
<path d="M15 14.3882C15 14.3882 16 14.3882 16 13.3882C16 12.3882 15 9.38818 11 9.38818C7 9.38818 6 12.3882 6 13.3882C6 14.3882 7 14.3882 7 14.3882H15ZM7.022 13.3882C7.01461 13.3872 7.00727 13.3858 7 13.3842C7.001 13.1202 7.167 12.3542 7.76 11.6642C8.312 11.0172 9.282 10.3882 11 10.3882C12.717 10.3882 13.687 11.0182 14.24 11.6642C14.833 12.3542 14.998 13.1212 15 13.3842L14.992 13.3862C14.9874 13.387 14.9827 13.3876 14.978 13.3882H7.022ZM11 7.38818C11.5304 7.38818 12.0391 7.17747 12.4142 6.8024C12.7893 6.42732 13 5.91862 13 5.38818C13 4.85775 12.7893 4.34904 12.4142 3.97397C12.0391 3.5989 11.5304 3.38818 11 3.38818C10.4696 3.38818 9.96086 3.5989 9.58579 3.97397C9.21071 4.34904 9 4.85775 9 5.38818C9 5.91862 9.21071 6.42732 9.58579 6.8024C9.96086 7.17747 10.4696 7.38818 11 7.38818ZM14 5.38818C14 5.78215 13.9224 6.17226 13.7716 6.53623C13.6209 6.90021 13.3999 7.23093 13.1213 7.5095C12.8427 7.78808 12.512 8.00906 12.1481 8.15982C11.7841 8.31059 11.394 8.38818 11 8.38818C10.606 8.38818 10.2159 8.31059 9.85195 8.15982C9.48797 8.00906 9.15726 7.78808 8.87868 7.5095C8.6001 7.23093 8.37913 6.90021 8.22836 6.53623C8.0776 6.17226 8 5.78215 8 5.38818C8 4.59253 8.31607 3.82947 8.87868 3.26686C9.44129 2.70425 10.2044 2.38818 11 2.38818C11.7956 2.38818 12.5587 2.70425 13.1213 3.26686C13.6839 3.82947 14 4.59253 14 5.38818ZM6.936 9.66818C6.53598 9.54222 6.12364 9.45942 5.706 9.42118C5.47133 9.39887 5.23573 9.38786 5 9.38818C1 9.38818 0 12.3882 0 13.3882C0 14.0552 0.333 14.3882 1 14.3882H5.216C5.06776 14.076 4.99382 13.7337 5 13.3882C5 12.3782 5.377 11.3462 6.09 10.4842C6.333 10.1902 6.616 9.91518 6.936 9.66818ZM4.92 10.3882C4.32815 11.2775 4.00844 12.32 4 13.3882H1C1 13.1282 1.164 12.3582 1.76 11.6642C2.305 11.0282 3.252 10.4082 4.92 10.3892V10.3882ZM1.5 5.88818C1.5 5.09253 1.81607 4.32947 2.37868 3.76686C2.94129 3.20425 3.70435 2.88818 4.5 2.88818C5.29565 2.88818 6.05871 3.20425 6.62132 3.76686C7.18393 4.32947 7.5 5.09253 7.5 5.88818C7.5 6.68383 7.18393 7.44689 6.62132 8.0095C6.05871 8.57211 5.29565 8.88818 4.5 8.88818C3.70435 8.88818 2.94129 8.57211 2.37868 8.0095C1.81607 7.44689 1.5 6.68383 1.5 5.88818ZM4.5 3.88818C3.96957 3.88818 3.46086 4.0989 3.08579 4.47397C2.71071 4.84904 2.5 5.35775 2.5 5.88818C2.5 6.41862 2.71071 6.92732 3.08579 7.3024C3.46086 7.67747 3.96957 7.88818 4.5 7.88818C5.03043 7.88818 5.53914 7.67747 5.91421 7.3024C6.28929 6.92732 6.5 6.41862 6.5 5.88818C6.5 5.35775 6.28929 4.84904 5.91421 4.47397C5.53914 4.0989 5.03043 3.88818 4.5 3.88818Z" fill="white"/>
</svg>
