<svg width="16" height="17" viewBox="0 0 16 17" fill="none" xmlns="http://www.w3.org/2000/svg">
<g clip-path="url(#clip0_2255_1420)">
<path d="M5 8.38818C5.53043 8.38818 6.03914 8.17747 6.41421 7.8024C6.78929 7.42732 7 6.91862 7 6.38818C7 5.85775 6.78929 5.34904 6.41421 4.97397C6.03914 4.5989 5.53043 4.38818 5 4.38818C4.46957 4.38818 3.96086 4.5989 3.58579 4.97397C3.21071 5.34904 3 5.85775 3 6.38818C3 6.91862 3.21071 7.42732 3.58579 7.8024C3.96086 8.17747 4.46957 8.38818 5 8.38818ZM9 5.88818C9 5.75558 9.05268 5.6284 9.14645 5.53463C9.24021 5.44086 9.36739 5.38818 9.5 5.38818H13.5C13.6326 5.38818 13.7598 5.44086 13.8536 5.53463C13.9473 5.6284 14 5.75558 14 5.88818C14 6.02079 13.9473 6.14797 13.8536 6.24174C13.7598 6.33551 13.6326 6.38818 13.5 6.38818H9.5C9.36739 6.38818 9.24021 6.33551 9.14645 6.24174C9.05268 6.14797 9 6.02079 9 5.88818ZM9 8.38818C9 8.25558 9.05268 8.1284 9.14645 8.03463C9.24021 7.94086 9.36739 7.88818 9.5 7.88818H13.5C13.6326 7.88818 13.7598 7.94086 13.8536 8.03463C13.9473 8.1284 14 8.25558 14 8.38818C14 8.52079 13.9473 8.64797 13.8536 8.74174C13.7598 8.83551 13.6326 8.88818 13.5 8.88818H9.5C9.36739 8.88818 9.24021 8.83551 9.14645 8.74174C9.05268 8.64797 9 8.52079 9 8.38818ZM10 10.8882C10 10.7556 10.0527 10.6284 10.1464 10.5346C10.2402 10.4409 10.3674 10.3882 10.5 10.3882H13.5C13.6326 10.3882 13.7598 10.4409 13.8536 10.5346C13.9473 10.6284 14 10.7556 14 10.8882C14 11.0208 13.9473 11.148 13.8536 11.2417C13.7598 11.3355 13.6326 11.3882 13.5 11.3882H10.5C10.3674 11.3882 10.2402 11.3355 10.1464 11.2417C10.0527 11.148 10 11.0208 10 10.8882Z" fill="white"/>
<path d="M2 2.38818C1.46957 2.38818 0.960859 2.5989 0.585786 2.97397C0.210714 3.34904 0 3.85775 0 4.38818L0 12.3882C0 12.9186 0.210714 13.4273 0.585786 13.8024C0.960859 14.1775 1.46957 14.3882 2 14.3882H14C14.5304 14.3882 15.0391 14.1775 15.4142 13.8024C15.7893 13.4273 16 12.9186 16 12.3882V4.38818C16 3.85775 15.7893 3.34904 15.4142 2.97397C15.0391 2.5989 14.5304 2.38818 14 2.38818H2ZM1 4.38818C1 4.12297 1.10536 3.86861 1.29289 3.68108C1.48043 3.49354 1.73478 3.38818 2 3.38818H14C14.2652 3.38818 14.5196 3.49354 14.7071 3.68108C14.8946 3.86861 15 4.12297 15 4.38818V12.3882C15 12.6534 14.8946 12.9078 14.7071 13.0953C14.5196 13.2828 14.2652 13.3882 14 13.3882H8.96C8.986 13.2252 9 13.0582 9 12.8882C9 10.9552 7.21 9.38818 5 9.38818C2.914 9.38818 1.2 10.7862 1.016 12.5692C1.00522 12.5095 0.999862 12.4489 1 12.3882V4.38818Z" fill="white"/>
</g>
<defs>
<clipPath id="clip0_2255_1420">
<rect width="16" height="16" fill="white" transform="translate(0 0.388184)"/>
</clipPath>
</defs>
</svg>
