<svg width="16" height="16" viewBox="0 0 16 16" fill="none" xmlns="http://www.w3.org/2000/svg">
<path fill-rule="evenodd" clip-rule="evenodd" d="M11.3539 1.64598C11.4005 1.69242 11.4374 1.7476 11.4626 1.80834C11.4878 1.86909 11.5008 1.93421 11.5008 1.99998C11.5008 2.06575 11.4878 2.13087 11.4626 2.19161C11.4374 2.25236 11.4005 2.30753 11.3539 2.35398L5.70692 7.99998L11.3539 13.646C11.4478 13.7399 11.5005 13.8672 11.5005 14C11.5005 14.1328 11.4478 14.2601 11.3539 14.354C11.26 14.4479 11.1327 14.5006 10.9999 14.5006C10.8671 14.5006 10.7398 14.4479 10.6459 14.354L4.64592 8.35398C4.59935 8.30753 4.56241 8.25236 4.5372 8.19161C4.512 8.13087 4.49902 8.06575 4.49902 7.99998C4.49902 7.93421 4.512 7.86909 4.5372 7.80834C4.56241 7.7476 4.59935 7.69242 4.64592 7.64598L10.6459 1.64598C10.6924 1.59942 10.7475 1.56247 10.8083 1.53727C10.869 1.51206 10.9341 1.49908 10.9999 1.49908C11.0657 1.49908 11.1308 1.51206 11.1916 1.53727C11.2523 1.56247 11.3075 1.59942 11.3539 1.64598Z" fill="white"/>
</svg>
