<svg width="17" height="16" viewBox="0 0 17 16" fill="none" xmlns="http://www.w3.org/2000/svg">
<path d="M3.5 14C3.5 14 2.5 14 2.5 13C2.5 12 3.5 9 8.5 9C13.5 9 14.5 12 14.5 13C14.5 14 13.5 14 13.5 14H3.5ZM8.5 8C9.29565 8 10.0587 7.68393 10.6213 7.12132C11.1839 6.55871 11.5 5.79565 11.5 5C11.5 4.20435 11.1839 3.44129 10.6213 2.87868C10.0587 2.31607 9.29565 2 8.5 2C7.70435 2 6.94129 2.31607 6.37868 2.87868C5.81607 3.44129 5.5 4.20435 5.5 5C5.5 5.79565 5.81607 6.55871 6.37868 7.12132C6.94129 7.68393 7.70435 8 8.5 8Z" fill="white"/>
</svg>
